<?xml version="1.0" encoding="UTF-8"?>
<svg version="1.1" xmlns="http://www.w3.org/2000/svg" width="347" height="326">
<path d="M0 0 C1.38983633 -0.00551503 1.38983633 -0.00551503 2.80775017 -0.01114148 C5.92595174 -0.02219248 9.04412001 -0.0260246 12.16233826 -0.02983093 C14.39283352 -0.0360946 16.62332773 -0.04274131 18.8538208 -0.04974365 C24.9243653 -0.06716431 30.99490191 -0.07770872 37.06546521 -0.08594918 C40.85814822 -0.09109798 44.65082878 -0.09717382 48.44351006 -0.10346031 C58.94952468 -0.12033253 69.45553817 -0.13496633 79.96156406 -0.14220905 C82.6876685 -0.14411888 85.41377292 -0.14603922 88.13987732 -0.147995 C88.81741788 -0.14847874 89.49495844 -0.14896248 90.19303053 -0.14946087 C101.15983188 -0.1577547 112.12652392 -0.18308003 123.09327758 -0.21557567 C134.35964393 -0.24868605 145.6259569 -0.26632902 156.89237827 -0.26985329 C163.21515538 -0.27220341 169.53775981 -0.28115898 175.8604908 -0.30631447 C181.8120914 -0.32961005 187.76340582 -0.33382222 193.71504021 -0.32355309 C195.89586718 -0.32305795 198.0767083 -0.32937163 200.25749207 -0.34310913 C203.24288419 -0.36085807 206.22725266 -0.3537067 209.21264648 -0.34057617 C210.06860792 -0.35154542 210.92456936 -0.36251466 211.80646902 -0.37381631 C221.45941707 -0.27184228 229.12088499 3.34409786 236.07029724 9.92451477 C242.03748673 16.62141974 244.1668377 23.06285709 244.19793701 31.89413452 C244.2016137 32.57174424 244.20529039 33.24935396 244.20907849 33.94749731 C244.22008818 36.21726931 244.22395459 38.48699549 244.22776794 40.75679016 C244.23403479 42.38483322 244.24068179 44.01287484 244.24768066 45.64091492 C244.26870224 50.98804228 244.27908326 56.33516985 244.28904724 61.68232727 C244.29309591 63.52580213 244.29721287 65.36927684 244.30139732 67.21275139 C244.3204471 75.87693667 244.33467695 84.54111346 244.34300929 93.20531565 C244.35277253 103.19152521 244.37906905 113.17751258 244.41951019 123.1636439 C244.44972556 130.89122293 244.46448342 138.61873847 244.46779031 146.34637541 C244.47013516 150.95724473 244.4790215 155.56787662 244.50425148 160.17868233 C244.52763142 164.52160965 244.53172584 168.8641449 244.5214901 173.20711899 C244.52099698 174.7941093 244.52725072 176.38111957 244.54104614 177.96805 C244.63898162 189.90987003 243.63818037 200.4426031 235.03904724 209.42842102 C227.50186245 215.94386563 218.87942202 218.47373777 209.00413513 218.3742218 C208.23258087 218.37451385 207.46102661 218.37480591 206.66609192 218.37510681 C204.13925058 218.37372373 201.61271148 218.3582112 199.08592224 218.34248352 C197.32472901 218.33874975 195.5635337 218.3359045 193.80233765 218.33390808 C189.18440437 218.32630029 184.56659844 218.30667651 179.94871521 218.28450012 C175.22949445 218.26398 170.51025296 218.25489321 165.79100037 218.24482727 C156.54419986 218.22342777 147.29749355 218.18932652 138.05076599 218.14717102 C137.74992096 218.91778366 137.44907593 219.6883963 137.13911438 220.48236084 C135.96541613 223.35614931 134.55083864 225.93334421 132.99607849 228.61982727 C132.38691589 229.67565002 131.7777533 230.73147278 131.15013123 231.81929016 C126.20639998 240.30866765 126.20639998 240.30866765 124.05865479 243.9781189 C121.86953382 247.72280929 119.72477304 251.48980569 117.60154724 255.27217102 C116.56434058 257.08498797 115.52661251 258.89750672 114.48826599 260.70967102 C114.02500916 261.55344299 113.56175232 262.39721497 113.0844574 263.26655579 C110.99714716 266.85650293 109.85844898 268.77303142 106.02342224 270.54951477 C103.05076599 270.14717102 103.05076599 270.14717102 100.65623474 268.04170227 C96.74790853 262.62861595 93.61796178 256.65555433 90.36326599 250.83467102 C89.70044974 249.65660157 89.03704123 248.47886513 88.37303162 247.3014679 C88.04398834 246.71313171 87.71494507 246.12479553 87.37593079 245.51863098 C86.68599394 244.30816353 85.97740081 243.10816295 85.25172424 241.91877747 C83.18924704 238.48496781 81.75415955 235.35288355 80.67332458 231.48701477 C78.9107924 226.15351623 77.01404319 222.09483531 72.05076599 219.14717102 C60.32091805 216.30328216 47.75727977 217.30151174 35.78916931 217.69117737 C30.36114066 217.85172197 24.93125197 217.90648546 19.50131226 217.96494102 C15.27225761 218.01076467 11.04700226 218.07546135 6.81956482 218.20347595 C-5.38417831 218.51766504 -15.34289961 217.26286733 -24.94923401 209.14717102 C-34.41436326 199.53737822 -34.39402111 187.67054553 -34.35328674 174.93232727 C-34.35899846 173.31162549 -34.36596581 171.69092772 -34.37408447 170.07023621 C-34.39194054 165.69420481 -34.39086204 161.31837476 -34.38514209 156.94231796 C-34.38203987 153.27937042 -34.388154 149.61646097 -34.39418083 145.95351887 C-34.40819907 137.30872709 -34.40668676 128.66403421 -34.39527893 120.01924133 C-34.38379471 111.12024672 -34.39788464 102.22155339 -34.42467541 93.32259846 C-34.44686899 85.6619852 -34.45346172 78.00146628 -34.44759899 70.34082317 C-34.44423765 65.77425603 -34.44658988 61.20788206 -34.46385002 56.64134216 C-34.47937606 52.3467253 -34.47530133 48.05255329 -34.45654488 43.75795364 C-34.45287489 42.18829047 -34.45592077 40.61859391 -34.46643066 39.04896164 C-34.54299843 26.6615874 -32.94972356 17.35793855 -24.24220276 8.12763977 C-17.01328981 1.8839279 -9.31586072 -0.00197056 0 0 Z M-15.94923401 31.14717102 C-19.5860081 38.13917529 -19.37025597 45.63877243 -19.32154846 53.32685852 C-19.32519913 54.62069458 -19.32884979 55.91453064 -19.33261108 57.24757385 C-19.34195703 60.77242709 -19.33264818 64.29699957 -19.31927896 67.82183075 C-19.30789515 71.52516681 -19.31207729 75.22849044 -19.31402588 78.93183899 C-19.31490668 85.14884481 -19.30387348 91.36574115 -19.28541565 97.5827179 C-19.26425132 104.75196963 -19.26073946 111.9210611 -19.26697761 119.09033775 C-19.27268898 126.01069105 -19.26700477 132.93098839 -19.25580406 139.85133362 C-19.2511815 142.7857111 -19.25027401 145.72005409 -19.25238991 148.6544342 C-19.25463795 152.75886803 -19.24010549 156.86308111 -19.22389221 160.96748352 C-19.22636963 162.1739856 -19.22884705 163.38048767 -19.23139954 164.62355042 C-19.31082147 176.94709098 -19.31082147 176.94709098 -13.76173401 187.52217102 C-13.21130432 188.1486554 -12.66087463 188.77513977 -12.09376526 189.42060852 C-6.73670183 193.73358126 -1.57491199 194.57522276 5.13816833 194.34150696 C5.9147731 194.32760422 6.69137787 194.31370148 7.49151611 194.29937744 C9.16667981 194.26914334 10.84174313 194.23285232 12.51665878 194.19107819 C16.08925599 194.1099023 19.66157653 194.08474881 23.23491859 194.05624771 C29.87450918 194.00293747 36.51179016 193.92824601 43.1493988 193.75312805 C47.78141587 193.63308516 52.40919131 193.58695865 57.04269791 193.58864594 C58.79964074 193.57568307 60.55661134 193.53579877 62.31228256 193.46772003 C75.64540794 192.96804888 75.64540794 192.96804888 79.64356613 196.59016037 C82.47690267 200.15832978 84.40164615 204.07009717 86.19315338 208.23872757 C87.52567236 211.20397911 89.20028533 213.90848789 90.88670349 216.68623352 C92.06737725 218.71430551 93.24708092 220.74294259 94.42576599 222.77217102 C95.62080223 224.82701921 96.81610482 226.88171253 98.01170349 228.93623352 C98.52523376 229.820047 99.03876404 230.70386047 99.56785583 231.61445618 C100.05721619 232.45025208 100.54657654 233.28604797 101.05076599 234.14717102 C101.56719666 235.07964661 102.08362732 236.01212219 102.6157074 236.97285461 C103.08927673 237.69037903 103.56284607 238.40790344 104.05076599 239.14717102 C104.71076599 239.14717102 105.37076599 239.14717102 106.05076599 239.14717102 C107.33075687 237.26071867 108.51105082 235.30648372 109.64842224 233.33076477 C110.00158005 232.72265457 110.35473785 232.11454437 110.71859741 231.48800659 C111.85719487 229.52420304 112.98549857 227.55471037 114.11326599 225.58467102 C115.21815643 223.66947879 116.32519366 221.75554467 117.43295288 219.8420105 C118.45887704 218.06741221 119.4797251 216.28988212 120.50022888 214.51216125 C121.08015594 213.56936813 121.08015594 213.56936813 121.67179871 212.60752869 C122.82728048 210.54591456 123.75839965 208.53779632 124.69291687 206.37406921 C129.33234164 196.37699712 129.33234164 196.37699712 133.89934731 194.3108654 C139.33047909 192.9968815 144.8628802 193.35424576 150.40232849 193.56904602 C152.18869812 193.582226 153.97513277 193.58831227 155.7615509 193.58766174 C160.44672584 193.60286698 165.12583406 193.70494537 169.80924988 193.82850647 C176.40880753 193.98659233 183.01032611 194.02548983 189.61140442 194.07814026 C193.12185948 194.10645186 196.62935485 194.16724657 200.1388092 194.254776 C201.74699195 194.2838012 203.35517667 194.31271727 204.96336365 194.34150696 C205.68146713 194.36650772 206.39957062 194.39150848 207.13943481 194.41726685 C213.06149751 194.49707546 217.64251231 193.20449521 222.19529724 189.31513977 C222.74572693 188.66158508 223.29615662 188.0080304 223.86326599 187.33467102 C224.4265863 186.68885071 224.98990662 186.0430304 225.57029724 185.37763977 C228.52923313 180.91971789 229.30067074 176.47758682 229.31819153 171.20249939 C229.3267215 170.03624527 229.33525146 168.86999115 229.34403992 167.668396 C229.34313354 166.40278336 229.34222717 165.13717072 229.34129333 163.83320618 C229.34728308 162.47585685 229.35408965 161.11851093 229.36164856 159.76116943 C229.37926954 156.08546663 229.38400226 152.40985704 229.38528013 148.73411608 C229.3867044 146.4347732 229.39097918 144.13545382 229.39627457 141.83611679 C229.41476126 133.80632276 229.4229468 125.776595 229.42137146 117.7467804 C229.42017012 110.27473198 229.44127437 102.80297244 229.47285879 95.33099711 C229.49905114 88.90446357 229.50973753 82.47802422 229.50846064 76.05143774 C229.50795192 72.21813943 229.51358536 68.38509807 229.53481674 64.55185318 C229.5542496 60.94509887 229.55428974 57.3388453 229.53978348 53.73207283 C229.5367118 51.7870248 229.55333609 49.84197645 229.57066345 47.89700317 C229.51336517 39.89274902 228.60710111 34.4413006 223.37498474 28.12373352 C222.83486755 27.6777179 222.29475037 27.23170227 221.73826599 26.77217102 C220.93969177 26.07994446 220.93969177 26.07994446 220.12498474 25.37373352 C214.47812704 22.03453706 208.58961792 21.85632106 202.21447754 21.88647461 C201.34842799 21.88264906 200.48237844 21.87882352 199.59008497 21.87488204 C196.70069542 21.86459907 193.81150634 21.86853523 190.92210388 21.87251282 C188.84540626 21.86816377 186.76871024 21.86297997 184.6920166 21.85702515 C179.05982407 21.84364534 173.42769869 21.84305531 167.79549336 21.84558845 C163.09116433 21.84665875 158.38684884 21.8417733 153.68252271 21.83698303 C142.58366184 21.82589156 131.48483481 21.82544855 120.38597107 21.83149719 C108.94055406 21.83753882 97.49525992 21.82522029 86.04986387 21.80392712 C76.21782398 21.78630884 66.38582319 21.78031009 56.5537681 21.78356487 C50.68387316 21.78537735 44.81406589 21.78274482 38.94418526 21.76885033 C33.42428527 21.75627284 27.90457685 21.75821547 22.38467979 21.77126122 C20.36104899 21.77362663 18.33740471 21.77089359 16.31378937 21.76263809 C13.54698392 21.75216615 10.78082071 21.76027495 8.01403809 21.77294922 C7.21723462 21.76557493 6.42043115 21.75820065 5.59948212 21.7506029 C-2.94953314 21.83273803 -10.2744721 24.58896732 -15.94923401 31.14717102 Z " fill="#F5F5F5" transform="translate(67.94923400878906,35.85282897949219)"/>
<path d="M0 0 C0.33 0 0.66 0 1 0 C0.99962297 0.81961118 0.99924595 1.63922235 0.9988575 2.48367023 C0.99172995 22.45771966 1.01773207 42.43148871 1.0802784 62.40544605 C1.10973301 72.06486961 1.12811317 81.72407377 1.12011719 91.38354492 C1.11317355 99.80607794 1.12731987 108.22827117 1.16643608 116.65072078 C1.18640732 121.10745708 1.19605836 125.56366036 1.18042374 130.0204258 C1.16601696 134.22239311 1.17998248 138.42334577 1.21495247 142.62518311 C1.22286778 144.16053655 1.22075067 145.69598272 1.20739174 147.23129845 C1.11942604 158.28298293 3.05822662 166.19341628 10.34375 174.75390625 C11.0553125 175.35074219 11.766875 175.94757813 12.5 176.5625 C13.2115625 177.18253906 13.923125 177.80257812 14.65625 178.44140625 C19.89459903 181.92490836 25.07215383 182.27462466 31.20507812 182.17602539 C32.00586288 182.17161438 32.80664764 182.16720337 33.63169861 182.16265869 C35.36190894 182.15284967 37.09210021 182.13901614 38.82225037 182.12156868 C42.50518237 182.08905932 46.18783648 182.09159966 49.87088776 182.09185696 C56.71945834 182.09171346 63.56730945 182.07640558 70.41552734 182.00366211 C75.188602 181.95430331 79.9600097 181.94870747 84.73326111 181.97179985 C86.54815941 181.97236804 88.36313955 181.95671236 90.17774963 181.92436409 C104.33220097 181.6821878 104.33220097 181.6821878 108.34950256 184.85646057 C109.93456418 187.18411049 110.98520698 189.37963965 112 192 C112.64251709 193.0619458 113.28503418 194.1238916 113.94702148 195.21801758 C114.49946533 196.18376709 115.05190918 197.1495166 115.62109375 198.14453125 C116.24693359 199.23443359 116.87277344 200.32433594 117.51757812 201.44726562 C118.15115234 202.55779297 118.78472656 203.66832031 119.4375 204.8125 C120.70674495 207.02750783 121.97627492 209.24235236 123.24609375 211.45703125 C123.86339355 212.53807129 124.48069336 213.61911133 125.11669922 214.73291016 C127.5761531 218.99949193 130.10050736 223.22678808 132.63696289 227.44799805 C133.83430425 229.68976936 134.54145016 231.51828596 135 234 C136.98 234.33 138.96 234.66 141 235 C146.75071019 225.32681459 152.49191745 215.64872287 158.09765625 205.890625 C158.43477127 205.30409149 158.77188629 204.71755798 159.11921692 204.11325073 C160.77040383 201.23872206 162.41770849 198.36208641 164.06079102 195.48291016 C164.66205811 194.43409668 165.2633252 193.3852832 165.8828125 192.3046875 C166.41277832 191.37640137 166.94274414 190.44811523 167.48876953 189.49169922 C167.98747559 188.66943848 168.48618164 187.84717773 169 187 C169.3697142 186.29823135 169.73942841 185.59646271 170.12034607 184.87342834 C172.46677541 182.5347706 174.14482557 182.52677306 177.38032532 182.49440002 C178.10809677 182.50728561 178.83586823 182.5201712 179.58569336 182.53344727 C180.35689514 182.53114105 181.12809692 182.52883484 181.92266846 182.52645874 C183.59888021 182.52382736 185.27512503 182.53028575 186.95127678 182.54471016 C189.61416373 182.56660623 192.27591471 182.56287452 194.93885803 182.55223083 C201.56012128 182.53055854 208.18113575 182.54777481 214.80236816 182.57373047 C220.38567444 182.59525163 225.96825089 182.59689338 231.5515461 182.57081413 C234.15740223 182.56650132 236.7619509 182.59100038 239.36766052 182.61634827 C251.8332201 182.62801386 261.54718908 180.43804438 271.37890625 172.234375 C277.1651284 164.25914832 276.44318512 154.57404572 276.43237305 145.19897461 C276.44140181 143.61145266 276.45173175 142.02393767 276.46325684 140.43643188 C276.49072225 136.14989278 276.50009706 131.86348634 276.50611091 127.57687068 C276.51552192 123.08851206 276.54172745 118.60025146 276.56611633 114.11195374 C276.60971017 105.62306564 276.63830078 97.13419664 276.66143972 88.64523083 C276.68852961 78.97646745 276.73243874 69.30780303 276.77772844 59.63911045 C276.87047276 39.75946027 276.94220018 19.87978048 277 0 C277.33 0 277.66 0 278 0 C278.09356973 21.58407544 278.16404109 43.16811729 278.20724869 64.75235462 C278.22784674 74.77499497 278.25591452 84.79750906 278.30175781 94.82006836 C278.34171011 103.55888748 278.36745284 112.29761513 278.37635398 121.03652304 C278.38155454 125.66088068 278.39371996 130.28497672 278.42292023 134.90925026 C278.45022214 139.2685217 278.45841537 143.62742562 278.45243073 147.98677444 C278.45352439 149.58021866 278.46138993 151.17367612 278.4768219 152.76704597 C278.58694426 164.73178632 277.60557973 175.27644987 268.98828125 184.28125 C261.45109646 190.79669461 252.82865603 193.32656675 242.95336914 193.22705078 C242.18181488 193.22734283 241.41026062 193.22763489 240.61532593 193.22793579 C238.08848459 193.22655271 235.56194549 193.21104018 233.03515625 193.1953125 C231.27396302 193.19157873 229.51276771 193.18873348 227.75157166 193.18673706 C223.13363838 193.17912927 218.51583245 193.15950549 213.89794922 193.1373291 C209.17872846 193.11680898 204.45948696 193.10772219 199.74023438 193.09765625 C190.49343387 193.07625675 181.24672756 193.0421555 172 193 C171.69915497 193.77061264 171.39830994 194.54122528 171.08834839 195.33518982 C169.91465014 198.20897829 168.50007265 200.78617319 166.9453125 203.47265625 C166.3361499 204.528479 165.7269873 205.58430176 165.09936523 206.67211914 C160.15563399 215.16149663 160.15563399 215.16149663 158.00788879 218.83094788 C155.81876783 222.57563827 153.67400705 226.34263467 151.55078125 230.125 C150.51357459 231.93781695 149.47584652 233.7503357 148.4375 235.5625 C147.97424316 236.40627197 147.51098633 237.25004395 147.03369141 238.11938477 C144.94638117 241.70933191 143.80768299 243.6258604 139.97265625 245.40234375 C137 245 137 245 134.60546875 242.89453125 C130.69714254 237.48144493 127.56719579 231.50838331 124.3125 225.6875 C123.64968374 224.50943055 122.98627524 223.33169411 122.32226562 222.15429688 C121.99322235 221.56596069 121.66417908 220.97762451 121.32516479 220.37145996 C120.63522795 219.16099251 119.92663482 217.96099193 119.20095825 216.77160645 C117.13848105 213.33779679 115.70339356 210.20571253 114.62255859 206.33984375 C112.86002641 201.00634521 110.9632772 196.94766429 106 194 C94.27015206 191.15611114 81.70651378 192.15434072 69.73840332 192.54400635 C64.31037467 192.70455095 58.88048598 192.75931444 53.45054626 192.81777 C49.22149162 192.86359365 44.99623627 192.92829033 40.76879883 193.05630493 C28.5650557 193.37049402 18.6063344 192.11569631 9 184 C-0.52027871 174.33421485 -0.43392724 162.43006409 -0.34057617 149.62646484 C-0.3397286 147.9895428 -0.34020758 146.35261962 -0.34190369 144.71569824 C-0.34276 140.29897442 -0.32519364 135.88249792 -0.30418181 131.46583128 C-0.28535391 126.84007764 -0.28365977 122.21431754 -0.28010559 117.58853149 C-0.27080302 108.84106627 -0.24621357 100.0937143 -0.21605712 91.34629881 C-0.18245729 81.38254818 -0.16601309 71.41879197 -0.15097082 61.45499873 C-0.11966233 40.96993608 -0.0669368 20.48497519 0 0 Z " fill="#6C6C7A" transform="translate(34,61)"/>
<path d="M0 0 C7.26 0 14.52 0 22 0 C22.495 1.485 22.495 1.485 23 3 C22.649375 3.639375 22.29875 4.27875 21.9375 4.9375 C21.4734375 5.9584375 21.4734375 5.9584375 21 7 C21.34305176 7.61746597 21.68610352 8.23493195 22.03955078 8.87110901 C23 11 23 11 22.49951172 12.99424744 C22.14646973 13.69731522 21.79342773 14.400383 21.4296875 15.12475586 C21.03371872 15.93292252 20.63774994 16.74108917 20.2297821 17.57374573 C19.78270401 18.44530807 19.33562592 19.31687042 18.875 20.21484375 C18.19550041 21.58605629 18.19550041 21.58605629 17.50227356 22.98497009 C16.01593233 25.97658131 14.50795454 28.95673349 13 31.9375 C11.96795604 34.00648251 10.93760865 36.07631213 9.90893555 38.14697266 C7.86931107 42.24979409 5.82296285 46.3491391 3.77099609 50.44580078 C0.38209215 57.22289242 -2.91451806 64.04126282 -6.1875 70.875 C-11.40201603 81.70539518 -16.63834167 92.52513149 -21.89321899 103.33599854 C-22.74852272 105.09645887 -23.60300958 106.85731634 -24.45663452 108.61859131 C-25.64986271 111.08014493 -26.84604854 113.54023994 -28.04296875 116 C-28.39858887 116.73509796 -28.75420898 117.47019592 -29.12060547 118.22756958 C-32.85758319 125.88983192 -32.85758319 125.88983192 -35 129 C-35.66 129 -36.32 129 -37 129 C-38.53824659 126.30806847 -40.02777373 123.60281865 -41.5 120.875 C-41.92925781 120.13378906 -42.35851562 119.39257812 -42.80078125 118.62890625 C-46.54376173 111.55883201 -47.17560136 104.89027823 -46 97 C-44.40644341 92.18738965 -42.19465838 87.84135278 -39.8125 83.375 C-39.16641197 82.11112051 -38.5236591 80.84553126 -37.8840332 79.57836914 C-36.89791375 77.62615553 -35.90979156 75.6752722 -34.91111755 73.72944641 C-31.65362852 67.38218568 -28.65705669 60.92398407 -25.6875 54.4375 C-20.45507439 43.09674336 -15.14770697 31.79268797 -9.8125 20.5 C-9.24805679 19.30454056 -9.24805679 19.30454056 -8.67221069 18.08493042 C-7.60110502 15.81674292 -6.52925144 13.54891083 -5.45703125 11.28125 C-5.13678986 10.60336929 -4.81654846 9.92548859 -4.48660278 9.22706604 C-3.02248276 6.13385646 -1.53062725 3.0612545 0 0 Z " fill="#F4F4F4" transform="translate(209,82)"/>
<path d="M0 0 C0.89207114 -0.00367669 1.78414228 -0.00735338 2.70324588 -0.01114148 C5.69863376 -0.02217279 8.69398694 -0.02602121 11.68939209 -0.02983093 C13.83461111 -0.03609594 15.97982904 -0.04274277 18.12504578 -0.04974365 C25.17480718 -0.0707798 32.22456879 -0.08114475 39.27435303 -0.09111023 C41.70109824 -0.09515777 44.12784334 -0.09927469 46.55458832 -0.10346031 C57.95412208 -0.12250998 69.35364938 -0.13674222 80.753196 -0.14507228 C93.91402977 -0.15484813 107.07469551 -0.18117782 120.23547006 -0.22157317 C130.40714291 -0.25172318 140.57876755 -0.26654006 150.75048423 -0.26985329 C156.82614582 -0.2722048 162.90162784 -0.28117876 168.97724152 -0.30631447 C174.69328998 -0.32958086 180.40904045 -0.33383402 186.12512398 -0.32355309 C188.22132673 -0.32305729 190.31754409 -0.32939052 192.41370201 -0.34310913 C195.27933193 -0.3608122 198.14389055 -0.35372947 201.00952148 -0.34057617 C202.24865118 -0.35703004 202.24865118 -0.35703004 203.51281381 -0.37381631 C210.72521604 -0.29409605 216.00344886 2.23526976 221.63372803 6.64717102 C228.23559547 13.80464138 226.54595449 27.52279618 226.51751709 36.55708313 C226.52023437 37.95959148 226.5237994 39.36209839 226.52813721 40.76460266 C226.53717007 44.53480503 226.5337566 48.30489663 226.52737904 52.07510066 C226.52227848 56.03520785 226.52702102 59.99530622 226.53015137 63.95541382 C226.5337763 70.59495227 226.52902765 77.23444602 226.51947021 83.87397766 C226.50855704 91.54380348 226.51213785 99.21352319 226.52312303 106.8833465 C226.53220057 113.48659355 226.53347984 120.0898087 226.52824569 126.69305998 C226.52513259 130.62948667 226.52469912 134.56586345 226.53131866 138.50228691 C226.53709941 142.19682416 226.533082 145.89122431 226.52153015 149.58574677 C226.51763034 151.58496411 226.52356077 153.58419308 226.52978516 155.58340454 C226.52414551 156.77615997 226.51850586 157.96891541 226.51269531 159.19781494 C226.51156424 160.74931952 226.51156424 160.74931952 226.51041031 162.33216763 C226.24654149 165.28347442 225.49679859 167.46985537 224.25872803 170.14717102 C222.9774934 167.58470176 223.56010865 166.87409279 224.25872803 164.14717102 C224.35528045 162.24760297 224.39785896 160.34501171 224.40589905 158.44300842 C224.416632 156.69775124 224.416632 156.69775124 224.42758179 154.91723633 C224.43027069 153.64443314 224.43295959 152.37162994 224.43572998 151.06025696 C224.44199808 149.70320462 224.44864519 148.34615399 224.4556427 146.98910522 C224.47664399 142.53659756 224.48704129 138.0840897 224.49700928 133.63154602 C224.50105828 132.09632093 224.50517524 130.56109601 224.50935936 129.02587128 C224.52840226 121.8123968 224.54263527 114.5989325 224.55097133 107.38543773 C224.56074125 99.0694032 224.58705795 90.75363501 224.62747222 82.43769431 C224.65766805 76.00272009 224.67244347 69.56782208 224.67575234 63.13277841 C224.67809883 59.29272648 224.6870067 55.45295939 224.71221352 51.6129837 C224.7355604 47.99807064 224.73970131 44.38362863 224.72945213 40.76865959 C224.72872381 38.81880524 224.74776826 36.86897445 224.76751709 34.91921997 C224.72259303 27.31877861 224.15538398 21.54237348 218.91754627 15.6343956 C213.02668529 10.18032362 206.00680162 9.8506016 198.42243958 9.88647461 C197.55639003 9.88264906 196.69034048 9.87882352 195.79804701 9.87488204 C192.90865746 9.86459907 190.01946837 9.86853523 187.13006592 9.87251282 C185.05336829 9.86816377 182.97667228 9.86297997 180.89997864 9.85702515 C175.26778611 9.84364534 169.63566072 9.84305531 164.0034554 9.84558845 C159.29912636 9.84665875 154.59481088 9.8417733 149.89048475 9.83698303 C138.79162387 9.82589156 127.69279684 9.82544855 116.59393311 9.83149719 C105.14851609 9.83753882 93.70322196 9.82522029 82.25782591 9.80392712 C72.42578602 9.78630884 62.59378523 9.78031009 52.76173013 9.78356487 C46.89183519 9.78537735 41.02202793 9.78274482 35.15214729 9.76885033 C29.63224731 9.75627284 24.11253888 9.75821547 18.59264183 9.77126122 C16.56901103 9.77362663 14.54536675 9.77089359 12.5217514 9.76263809 C9.75494595 9.75216615 6.98878275 9.76027495 4.22200012 9.77294922 C3.42519665 9.76557493 2.62839318 9.75820065 1.80744416 9.7506029 C-5.02642589 9.81625968 -10.23803994 11.54132406 -16.05377197 15.27217102 C-22.59562018 22.27042724 -22.17125021 31.22509774 -22.11358643 40.32685852 C-22.11723709 41.62069458 -22.12088776 42.91453064 -22.12464905 44.24757385 C-22.133995 47.77242709 -22.12468614 51.29699957 -22.11131692 54.82183075 C-22.09993312 58.52516681 -22.10411526 62.22849044 -22.10606384 65.93183899 C-22.10694464 72.14884481 -22.09591144 78.36574115 -22.07745361 84.5827179 C-22.05628928 91.75196963 -22.05277743 98.9210611 -22.05901557 106.09033775 C-22.06472694 113.01069105 -22.05904273 119.93098839 -22.04784203 126.85133362 C-22.04321946 129.7857111 -22.04231197 132.72005409 -22.04442787 135.6544342 C-22.04667591 139.75886803 -22.03214345 143.86308111 -22.01593018 147.96748352 C-22.01840759 149.1739856 -22.02088501 150.38048767 -22.0234375 151.62355042 C-22.01872329 163.95616265 -22.01872329 163.95616265 -16.61627197 174.70967102 C-15.80802979 175.70160461 -15.80802979 175.70160461 -14.98345947 176.71357727 C-14.36857666 177.42320618 -14.36857666 177.42320618 -13.74127197 178.14717102 C-18.0251039 176.1742335 -21.58965065 173.45041367 -23.74127197 169.14717102 C-23.84164149 167.16342885 -23.8763845 165.17625973 -23.88171387 163.18998718 C-23.88742401 161.91984772 -23.89313416 160.64970825 -23.89901733 159.34107971 C-23.90026278 157.92536936 -23.90138786 156.5096589 -23.90240479 155.09394836 C-23.9070321 153.60911434 -23.91205665 152.12428151 -23.91744995 150.63945007 C-23.93058834 146.59783839 -23.93702225 142.55624334 -23.94146061 138.51461363 C-23.94439034 135.9888267 -23.94849506 133.46304432 -23.95296478 130.93725967 C-23.96664642 123.03286204 -23.97630857 115.1284748 -23.98016667 107.22406614 C-23.98464265 98.10379909 -24.00216627 88.98368227 -24.03116727 79.8634609 C-24.05280739 72.81281999 -24.06287228 65.76222125 -24.06420779 58.71154749 C-24.06525459 54.5015267 -24.07113502 50.291647 -24.0890274 46.08166122 C-24.10554737 42.11718776 -24.10764465 38.15296081 -24.0988884 34.18846512 C-24.09811999 32.73729033 -24.10243477 31.28610208 -24.11234665 29.83496094 C-24.2160032 13.70641795 -24.2160032 13.70641795 -18.83892822 6.65107727 C-18.16732666 6.01041321 -17.4957251 5.36974915 -16.80377197 4.70967102 C-16.13474854 4.05096008 -15.4657251 3.39224915 -14.77642822 2.71357727 C-10.43348037 -0.62907549 -5.26086877 -0.00116155 0 0 Z " fill="#707080" transform="translate(71.74127197265625,48.85282897949219)"/>
<path d="M0 0 C3.60389664 -0.11601004 7.20731467 -0.18718408 10.8125 -0.25 C11.83666016 -0.28351563 12.86082031 -0.31703125 13.91601562 -0.3515625 C14.89892578 -0.36445312 15.88183594 -0.37734375 16.89453125 -0.390625 C17.80050049 -0.41157227 18.70646973 -0.43251953 19.63989258 -0.45410156 C22 0 22 0 23.62084961 1.63256836 C26.3072804 6.24406054 28.56570882 11.05493167 30.83544922 15.88012695 C31.74581045 17.80364782 32.67923788 19.71484486 33.61328125 21.62695312 C34.19678084 22.86128611 34.77885974 24.0962919 35.359375 25.33203125 C35.89014648 26.44296143 36.42091797 27.5538916 36.96777344 28.69848633 C38.17607338 32.56315996 37.77119491 35.06767832 37 39 C37.43941523 41.26566343 37.43941523 41.26566343 38 43 C37 44 37 44 34.95874023 44.11352539 C33.64691772 44.10567017 33.64691772 44.10567017 32.30859375 44.09765625 C31.36435547 44.09443359 30.42011719 44.09121094 29.44726562 44.08789062 C28.45404297 44.07951172 27.46082031 44.07113281 26.4375 44.0625 C25.44041016 44.05798828 24.44332031 44.05347656 23.41601562 44.04882812 C20.94395151 44.03700007 18.47200482 44.02051849 16 44 C15.5153125 43.030625 15.030625 42.06125 14.53125 41.0625 C14.2108374 40.42231934 13.8904248 39.78213867 13.56030273 39.12255859 C12.84679737 37.69423356 12.13540846 36.26484952 11.42602539 34.83447266 C9.54921033 31.05771785 7.64158983 27.30485426 5.65234375 23.5859375 C5.09546875 22.52632812 5.09546875 22.52632812 4.52734375 21.4453125 C3.81498564 20.09208741 3.09017858 18.74532375 2.3515625 17.40625 C0.09588453 13.07462936 -0.05068472 10.69347786 1 6 C0.62382706 2.73589643 0.62382706 2.73589643 0 0 Z " fill="#F5F5F5" transform="translate(115,82)"/>
<path d="M0 0 C1.9375 0.3125 1.9375 0.3125 4 1 C5.16920845 4.50762535 4.88736925 4.85248867 3.31616211 8.01123047 C2.72232224 9.22359375 2.72232224 9.22359375 2.1164856 10.46044922 C1.67456879 11.33717285 1.23265198 12.21389648 0.77734375 13.1171875 C0.32575897 14.03274414 -0.12582581 14.94830078 -0.59109497 15.89160156 C-2.07261416 18.89059193 -3.56762859 21.8826461 -5.0625 24.875 C-6.08938801 26.9488419 -7.11518079 29.02322647 -8.13989258 31.09814453 C-10.17137886 35.21044878 -12.20678006 39.32077508 -14.24511719 43.4296875 C-17.60955715 50.22096197 -20.90828417 57.04221165 -24.1875 63.875 C-29.40298155 74.70493543 -34.63833888 85.52512574 -39.89321899 96.33599854 C-40.74852272 98.09645887 -41.60300958 99.85731634 -42.45663452 101.61859131 C-43.64986271 104.08014493 -44.84604854 106.54023994 -46.04296875 109 C-46.39858887 109.73509796 -46.75420898 110.47019592 -47.12060547 111.22756958 C-50.85758319 118.88983192 -50.85758319 118.88983192 -53 122 C-53.66 122 -54.32 122 -55 122 C-56.5581593 119.20669789 -58.06394229 116.38816083 -59.5625 113.5625 C-60.00013672 112.77939453 -60.43777344 111.99628906 -60.88867188 111.18945312 C-63.99392544 105.24790496 -64.31072269 101.57995963 -63 95 C-59.24519791 96.87740104 -58.65530933 102.11257362 -57.31640625 105.8984375 C-56.13328844 108.68596136 -55.3105672 110.12729539 -53 112 C-52.67 110.68 -52.34 109.36 -52 108 C-51.34 108 -50.68 108 -50 108 C-49.85232178 107.41154297 -49.70464355 106.82308594 -49.55249023 106.21679688 C-47.61026032 99.096447 -44.592262 92.95761575 -41.0625 86.5 C-37.65013741 80.21120416 -34.50933726 74.01788314 -31.94506836 67.33496094 C-30.47545471 63.70401675 -28.63834985 60.30200528 -26.75 56.875 C-26.38648438 56.2046875 -26.02296875 55.534375 -25.6484375 54.84375 C-24.77050586 53.22650751 -23.88598832 51.61284282 -23 50 C-22.34 50 -21.68 50 -21 50 C-20.7525 49.175 -20.505 48.35 -20.25 47.5 C-18.81295189 43.47626529 -16.97645485 39.78020976 -15 36 C-14.01 36 -13.02 36 -12 36 C-10.75284548 32.52578385 -9.7897495 29.11180212 -9.0625 25.5 C-8.24768295 21.64754497 -6.94525105 18.44839959 -5 15 C-4.34 15 -3.68 15 -3 15 C-1.08697693 11.73386305 -0.64325339 9.00554752 -0.375 5.25 C-0.30023438 4.26515625 -0.22546875 3.2803125 -0.1484375 2.265625 C-0.09945312 1.51796875 -0.05046875 0.7703125 0 0 Z " fill="#79797F" transform="translate(227,89)"/>
<path d="M0 0 C0.93082968 -0.00538554 1.86165936 -0.01077108 2.820696 -0.01631981 C5.92349808 -0.03056759 9.02587162 -0.02350343 12.12869263 -0.01637268 C14.35992779 -0.02207792 16.59116004 -0.02904278 18.8223877 -0.03717041 C24.8720214 -0.05510042 30.92151003 -0.0539336 36.97116232 -0.04822803 C42.02578941 -0.04513577 47.08038866 -0.0512291 52.13501179 -0.05726677 C64.74350147 -0.07211254 77.35190389 -0.06849898 89.96038701 -0.05640347 C100.89455065 -0.04647409 111.828545 -0.05940877 122.76268254 -0.08333766 C134.006622 -0.10775794 145.25048476 -0.11693003 156.49445736 -0.11068493 C162.8003729 -0.10731688 169.1061486 -0.10972049 175.41204453 -0.12693596 C181.34321966 -0.14242191 187.27407206 -0.13843085 193.20523453 -0.11963081 C195.37799265 -0.11594946 197.55077476 -0.11904009 199.72351074 -0.1295166 C202.69771642 -0.14275916 205.67085876 -0.13114967 208.64501953 -0.11352539 C209.92384579 -0.1279329 209.92384579 -0.1279329 211.22850692 -0.14263147 C217.49699197 -0.06660402 222.91261971 1.38395957 228.44949341 4.38768005 C228.77949341 5.04768005 229.10949341 5.70768005 229.44949341 6.38768005 C228.6933267 6.17543698 227.93716 5.96319391 227.15807915 5.74451923 C215.91214626 2.9359745 205.04300733 2.97018444 193.51638794 3.0153656 C191.3302849 3.01293341 189.14418299 3.00920996 186.95808411 3.00430298 C181.05974354 2.99495225 175.1615706 3.00426848 169.2632432 3.01763511 C163.07572329 3.02900463 156.88821096 3.02483808 150.70068359 3.02288818 C140.31939983 3.02200734 129.93818164 3.03304499 119.55691528 3.05149841 C107.56320594 3.07269626 95.56962635 3.07616753 83.5759021 3.06993645 C72.01724176 3.06423954 60.45861505 3.06989019 48.89995956 3.08111 C43.98867037 3.08574821 39.07740178 3.08663325 34.16611099 3.08452415 C28.38595731 3.08263865 22.60590093 3.09076543 16.82576942 3.10658455 C14.70699656 3.11082093 12.58821382 3.11168231 10.46943855 3.10889435 C7.57394087 3.10566267 4.67873215 3.11477906 1.78326416 3.12698364 C0.53102057 3.12131466 0.53102057 3.12131466 -0.74652088 3.11553115 C-6.00511474 3.15464536 -10.48873403 3.95126945 -15.55050659 5.38768005 C-17.21445335 5.73433563 -18.8799451 6.07444977 -20.55050659 6.38768005 C-15.0082767 0.32208026 -7.71529579 -0.05410573 0 0 Z " fill="#B2B2B2" transform="translate(68.55050659179688,35.61231994628906)"/>
<path d="M0 0 C3.60389664 -0.11601004 7.20731467 -0.18718408 10.8125 -0.25 C11.83666016 -0.28351563 12.86082031 -0.31703125 13.91601562 -0.3515625 C14.89892578 -0.36445312 15.88183594 -0.37734375 16.89453125 -0.390625 C17.80050049 -0.41157227 18.70646973 -0.43251953 19.63989258 -0.45410156 C22 0 22 0 23.8815918 1.83691406 C24.2506665 2.55073242 24.61974121 3.26455078 25 4 C24.67 4.99 24.34 5.98 24 7 C23.34 5.68 22.68 4.36 22 3 C15.4 2.67 8.8 2.34 2 2 C2.99 3.65 3.98 5.3 5 7 C5.68656612 8.99325648 6.35105786 10.99417884 7 13 C8.11314489 15.6905663 9.30684189 18.34409994 10.5 21 C11.11719118 22.3738314 11.73182113 23.74881661 12.34375 25.125 C12.61380859 25.72570312 12.88386719 26.32640625 13.16210938 26.9453125 C14.23702339 29.58123217 15.09980487 32.29941462 16 35 C25.9 34.505 25.9 34.505 36 34 C35.01 32.02 34.02 30.04 33 28 C33.3125 25.625 33.3125 25.625 34 24 C37.2960118 29.44619975 38.36059653 32.56808912 37 39 C37.43941523 41.26566343 37.43941523 41.26566343 38 43 C37 44 37 44 34.95874023 44.11352539 C33.64691772 44.10567017 33.64691772 44.10567017 32.30859375 44.09765625 C31.36435547 44.09443359 30.42011719 44.09121094 29.44726562 44.08789062 C28.45404297 44.07951172 27.46082031 44.07113281 26.4375 44.0625 C25.44041016 44.05798828 24.44332031 44.05347656 23.41601562 44.04882812 C20.94395151 44.03700007 18.47200482 44.02051849 16 44 C15.5153125 43.030625 15.030625 42.06125 14.53125 41.0625 C14.2108374 40.42231934 13.8904248 39.78213867 13.56030273 39.12255859 C12.84679737 37.69423356 12.13540846 36.26484952 11.42602539 34.83447266 C9.54921033 31.05771785 7.64158983 27.30485426 5.65234375 23.5859375 C5.09546875 22.52632812 5.09546875 22.52632812 4.52734375 21.4453125 C3.81498564 20.09208741 3.09017858 18.74532375 2.3515625 17.40625 C0.09588453 13.07462936 -0.05068472 10.69347786 1 6 C0.62382706 2.73589643 0.62382706 2.73589643 0 0 Z " fill="#BBBBC5" transform="translate(115,82)"/>
<path d="M0 0 C0.89630453 -0.00226556 1.79260907 -0.00453111 2.71607435 -0.00686532 C5.72547332 -0.01320574 8.73482726 -0.01237594 11.74423218 -0.0115509 C13.89918577 -0.01454228 16.05413884 -0.01794475 18.20909119 -0.02172852 C24.06624269 -0.03057268 29.92337959 -0.03290674 35.78053713 -0.0335443 C40.66422092 -0.03449279 45.54790129 -0.0381702 50.43158376 -0.0417164 C61.94677171 -0.04986174 73.46195184 -0.05230047 84.97714233 -0.05158997 C96.87417668 -0.05098842 108.7711658 -0.06155529 120.66818869 -0.07733363 C130.87034146 -0.09038429 141.07247939 -0.09577494 151.27464044 -0.09513456 C157.3735255 -0.09487894 163.47237033 -0.09776554 169.5712471 -0.10831261 C175.30198862 -0.11795261 181.0326511 -0.11810113 186.76339531 -0.11079597 C188.87178474 -0.10974516 190.98017899 -0.11214218 193.0885601 -0.11815643 C195.95602605 -0.12580923 198.82321438 -0.12127658 201.69067383 -0.11352539 C202.9560191 -0.12124074 202.9560191 -0.12124074 204.2469269 -0.12911195 C209.99008157 -0.09455893 209.99008157 -0.09455893 212.21835327 2.13371277 C210.53364835 2.13233008 210.53364835 2.13233008 208.81490898 2.13091946 C181.49896247 2.10872962 154.18301714 2.09229161 126.86706352 2.0819006 C113.65733393 2.07674215 100.44761029 2.06970801 87.23788452 2.05827332 C75.72562345 2.04831274 64.21336668 2.04185605 52.70110142 2.03962427 C46.60427576 2.03831951 40.50746243 2.0352484 34.41064072 2.02798271 C28.67339437 2.02120086 22.93616545 2.01910024 17.19891548 2.02060509 C15.09220981 2.02032974 12.98550356 2.01833745 10.87880135 2.01450729 C8.0038352 2.00953629 5.12893494 2.01072712 2.25396729 2.01345825 C1.00200634 2.00908899 1.00200634 2.00908899 -0.27524674 2.00463146 C-4.53707698 2.01558319 -8.61238625 2.12909538 -12.78164673 3.13371277 C-13.84881376 4.93303856 -13.84881376 4.93303856 -14.78164673 7.13371277 C-16.68701823 8.94639052 -18.70649877 10.50968393 -20.78164673 12.13371277 C-20.78164673 9.13371277 -20.78164673 9.13371277 -19.17227173 7.12590027 C-18.46586548 6.42722839 -17.75945923 5.72855652 -17.03164673 5.00871277 C-16.33555298 4.30488464 -15.63945923 3.60105652 -14.92227173 2.87590027 C-10.55861469 -0.67554323 -5.39367495 -0.00995428 0 0 Z " fill="#90909F" transform="translate(71.78164672851563,48.86628723144531)"/>
<path d="M0 0 C0.93361321 -0.00085442 1.86722643 -0.00170885 2.82913095 -0.00258917 C5.97068603 -0.00424181 9.11218821 0.00127392 12.2537384 0.00672913 C14.50045775 0.00701107 16.74717719 0.00685312 18.99389648 0.00628662 C25.10510221 0.00599893 31.21628843 0.01189114 37.32748961 0.01886058 C43.70966859 0.02509878 50.09184798 0.02569829 56.47402954 0.02688599 C67.18999128 0.02964404 77.90594447 0.03589634 88.62190247 0.04481506 C99.65998804 0.05399235 110.69807166 0.06107164 121.73616028 0.06532288 C122.4164071 0.0655856 123.09665392 0.06584832 123.79751428 0.06611901 C127.21007061 0.06742403 130.62262696 0.06868774 134.03518331 0.06993091 C162.35128539 0.08029971 190.66737968 0.09798897 218.98347473 0.12025452 C218.98347473 0.45025452 218.98347473 0.78025452 218.98347473 1.12025452 C217.2396904 1.12245436 217.2396904 1.12245436 215.4606781 1.12469864 C187.85259291 1.16041572 160.24461163 1.21667866 132.63662201 1.29817547 C129.2371033 1.30819269 125.8375841 1.31803686 122.43806458 1.32777405 C121.42290797 1.33068611 121.42290797 1.33068611 120.38724315 1.333657 C109.43512348 1.36466155 98.48302476 1.38165332 87.53086948 1.39344874 C76.28941033 1.40586832 65.04806024 1.43368456 53.80666351 1.47486758 C47.49400142 1.49750733 41.18149596 1.51316367 34.86878967 1.51213837 C28.92620232 1.51139326 22.98396155 1.52928463 17.04146385 1.56142235 C14.86143766 1.56993586 12.68137266 1.57166146 10.50133705 1.56605721 C7.52158963 1.55941789 4.54294512 1.57733709 1.56330872 1.60127258 C0.70336618 1.59351217 -0.15657635 1.58575175 -1.04257774 1.57775617 C-6.26950029 1.6519333 -9.74990016 2.59287061 -14.21269131 5.36115623 C-16.51427815 6.32972133 -17.70488944 5.92794122 -20.01652527 5.12025452 C-18.74697227 4.47190797 -17.47582821 3.82667636 -16.20402527 3.18275452 C-15.49632996 2.82310608 -14.78863464 2.46345764 -14.05949402 2.09291077 C-9.37537415 -0.13719601 -5.07713773 -0.01683622 0 0 Z " fill="#2B2B2B" transform="translate(68.01652526855469,35.87974548339844)"/>
<path d="M0 0 C0.88995543 -0.00453111 1.77991085 -0.00906223 2.69683462 -0.01373065 C5.69089135 -0.02643154 8.68476751 -0.02475062 11.67884827 -0.02310181 C13.82055904 -0.02908346 15.96226764 -0.03588816 18.10397339 -0.04345703 C23.93033626 -0.06116005 29.75664044 -0.06581419 35.5830276 -0.0670886 C40.44162418 -0.06898491 45.30020699 -0.07633925 50.15879828 -0.08343279 C61.61796263 -0.0997303 73.07709554 -0.10460046 84.53627014 -0.10317993 C96.3702489 -0.10197777 108.20404548 -0.12309138 120.03797811 -0.15466726 C130.18749507 -0.18078698 140.33695238 -0.19154906 150.48650271 -0.19026911 C156.55309831 -0.18975826 162.61953206 -0.19550943 168.68609428 -0.21662521 C174.38981991 -0.23593543 180.09322807 -0.23618159 185.79696465 -0.22159195 C187.89322877 -0.21949384 189.9895124 -0.22426393 192.08574295 -0.23631287 C194.94189834 -0.25166965 197.79694592 -0.24252081 200.65307617 -0.22705078 C201.90486968 -0.24248147 201.90486968 -0.24248147 203.18195194 -0.25822389 C206.9336071 -0.21314689 208.95350895 -0.08077232 211.93608952 2.29833031 C212.41588984 2.94813173 212.89569017 3.59793316 213.39002991 4.26742554 C212.84803375 4.12584082 212.30603759 3.9842561 211.7476173 3.83838093 C206.11119376 2.46252395 200.89508654 1.98550754 195.10754395 2.0269165 C194.21780681 2.02520765 193.32806968 2.0234988 192.41137081 2.02173817 C189.45422193 2.01846525 186.49730408 2.02941053 183.54017639 2.04037476 C181.41079717 2.04093935 179.28141757 2.04062138 177.15203857 2.03948975 C171.38825821 2.0389171 165.62456148 2.05065725 159.8608005 2.06463766 C153.83100228 2.07715962 147.80120204 2.07831668 141.77139282 2.08068848 C130.36064944 2.08689893 118.94994449 2.1033039 107.53921801 2.12338746 C94.54530783 2.14575996 81.5513958 2.15674329 68.55747116 2.16677833 C41.83496945 2.18767048 15.11250184 2.22283804 -11.60997009 2.26742554 C-7.72840536 -0.32028429 -4.50185246 -0.01666327 0 0 Z " fill="#3B3B44" transform="translate(74.60997009277344,56.732574462890625)"/>
<path d="M0 0 C0.8353125 0.37125 0.8353125 0.37125 1.6875 0.75 C0.615 1.306875 -0.4575 1.86375 -1.5625 2.4375 C-6.6453935 5.37428291 -9.36463838 8.76136993 -10.90935516 14.49109268 C-11.80432852 19.50582107 -11.58822521 24.62533213 -11.57128906 29.70263672 C-11.5747937 30.99618073 -11.57829834 32.28972473 -11.58190918 33.62246704 C-11.59099275 37.15564046 -11.58750517 40.6886965 -11.58115101 44.22187185 C-11.57606792 47.93056129 -11.58078906 51.63924105 -11.58392334 55.34793091 C-11.58755718 61.5768615 -11.58278013 67.8057446 -11.57324219 74.03466797 C-11.56236831 81.21864062 -11.56587778 88.40249965 -11.576895 95.58646953 C-11.58599592 101.77014949 -11.58723919 107.9537954 -11.58201766 114.1374799 C-11.57891211 117.8237164 -11.57844927 121.50989966 -11.58509064 125.19613266 C-11.59198578 129.3103473 -11.58240569 133.42436881 -11.57128906 137.53857422 C-11.57533752 138.74821838 -11.57938599 139.95786255 -11.58355713 141.2041626 C-11.59355419 153.54820074 -11.59355419 153.54820074 -6.1875 164.3125 C-5.37925781 165.30443359 -5.37925781 165.30443359 -4.5546875 166.31640625 C-3.93980469 167.02603516 -3.93980469 167.02603516 -3.3125 167.75 C-7.59633193 165.77706248 -11.16087867 163.05324265 -13.3125 158.75 C-13.41905484 156.82975379 -13.46080017 154.90579629 -13.47312927 152.9826355 C-13.4831749 151.7545668 -13.49322052 150.52649811 -13.50357056 149.26121521 C-13.50960097 147.89273132 -13.51548595 146.52424679 -13.52124023 145.15576172 C-13.53077706 143.72018707 -13.54066814 142.28461474 -13.55088806 140.8490448 C-13.58230112 136.12595353 -13.60254693 131.40284453 -13.62109375 126.6796875 C-13.62439107 125.87600314 -13.62768839 125.07231877 -13.63108563 124.24428034 C-13.66187421 116.66319459 -13.68858052 109.08210489 -13.70550442 101.50097466 C-13.72739815 91.80722221 -13.76933435 82.1140246 -13.83894199 72.42049396 C-13.88622894 65.60340302 -13.91044444 58.78646148 -13.9177013 51.9692117 C-13.92265173 47.89871008 -13.93767259 43.82883345 -13.9774456 39.75851059 C-14.0144078 35.9251579 -14.0226911 32.09278457 -14.00943947 28.25928688 C-14.00949327 26.85645561 -14.01972805 25.45357992 -14.0411911 24.05091286 C-14.15064638 16.49012294 -14.03439675 11.04937858 -8.85684299 5.24502754 C-8.34720981 4.75166845 -7.83757662 4.25830936 -7.3125 3.75 C-6.44625 2.904375 -5.58 2.05875 -4.6875 1.1875 C-2.3125 -0.25 -2.3125 -0.25 0 0 Z " fill="#5A5A5C" transform="translate(61.3125,59.25)"/>
<path d="M0 0 C0.33 0 0.66 0 1 0 C1.00238835 0.81776759 1.00477671 1.63553518 1.00723743 2.47808361 C1.06649463 22.41941308 1.14211296 42.36062277 1.23571491 62.30182171 C1.28059063 71.94542533 1.32002408 81.58899269 1.34643555 91.23266602 C1.36948242 99.64269436 1.40295464 108.05260718 1.44870156 116.46254379 C1.47254392 120.91136823 1.49133137 125.36007891 1.49761391 129.80896568 C1.50370571 134.00576599 1.52385141 138.20227554 1.55427551 142.39896774 C1.56299064 143.93025371 1.56679204 145.46157777 1.56500816 146.9928875 C1.55826986 155.45441496 2.16852683 163.23776107 4.45660686 171.43475056 C5 174 5 174 4 177 C0.68650322 170.80520167 -0.12553841 166.08731661 -0.12025452 159.09672546 C-0.12110894 158.41458365 -0.12196337 157.73244183 -0.12284368 157.02962905 C-0.12448667 154.75108965 -0.1189965 152.47262438 -0.11352539 150.1940918 C-0.11324324 148.55790712 -0.1134018 146.92172232 -0.1139679 145.28553772 C-0.11425477 140.8479477 -0.10837569 136.41038471 -0.10139394 131.97280097 C-0.09514222 127.33366009 -0.09455516 122.69451859 -0.09336853 118.05537415 C-0.09026059 109.27237479 -0.08205441 100.48938789 -0.07201904 91.70639402 C-0.06084126 81.70647003 -0.05534325 71.70654544 -0.05032361 61.70661676 C-0.03987137 41.13773756 -0.02228229 20.56886956 0 0 Z " fill="#39393B" transform="translate(34,61)"/>
<path d="M0 0 C3.35706204 3.05187458 4.87804453 5.47909404 5.24609566 10.06905746 C5.24425207 11.28213703 5.24240849 12.4952166 5.24050903 13.74505615 C5.24221788 14.42225999 5.24392673 15.09946383 5.24568737 15.797189 C5.24898015 18.06509581 5.23798224 20.3327064 5.22705078 22.60058594 C5.22648662 24.22677097 5.22680332 25.8529565 5.22793579 27.47914124 C5.22851012 31.89409738 5.21674287 36.30894508 5.20278788 40.723876 C5.19029384 45.33766062 5.18911106 49.95144766 5.18673706 54.56524658 C5.18051839 63.30225651 5.16410233 72.03921644 5.14403808 80.77620435 C5.12169113 90.72289649 5.11068868 100.66959102 5.10064721 110.61630201 C5.07973645 131.07756259 5.04455294 151.53877815 5 172 C4.67 172 4.34 172 4 172 C3.99761165 171.1645506 3.99522329 170.3291012 3.99276257 169.46833515 C3.93364285 149.14593333 3.8581122 128.82365041 3.76428509 108.50137806 C3.71930741 98.67369979 3.67989729 88.84605792 3.65356445 79.01831055 C3.63060035 70.45307636 3.59722011 61.88795718 3.55129844 53.32281417 C3.52734479 48.78705394 3.50863006 44.25140776 3.50238609 39.71558571 C3.49634492 35.44658175 3.47638021 31.17786967 3.44572449 26.90897369 C3.43692872 25.34207624 3.43322486 23.77514067 3.43499184 22.20821953 C3.43664311 20.06826947 3.41995932 17.92921074 3.39872742 15.78938293 C3.39411845 14.59197385 3.38950949 13.39456476 3.38476086 12.16087055 C2.96157225 8.68431001 1.8507018 6.91788316 0 4 C0 2.68 0 1.36 0 0 Z " fill="#D7D7D8" transform="translate(306,50)"/>
<path d="M0 0 C0.6875 1.6875 0.6875 1.6875 1 4 C0.51966907 4.73266429 0.03933813 5.46532858 -0.45554829 6.22019482 C-2.357548 9.64353827 -2.38370119 11.88557036 -2.39872742 15.78938293 C-2.40537424 16.45927409 -2.41202107 17.12916525 -2.41886932 17.81935614 C-2.43747245 20.05656586 -2.43489596 22.2932395 -2.43237305 24.53051758 C-2.44139188 26.13715366 -2.4517194 27.74378286 -2.46325684 29.35040283 C-2.49083878 33.70742398 -2.50011297 38.06431461 -2.50611091 42.42141175 C-2.51549146 46.97652501 -2.5416946 51.53154065 -2.56611633 56.08659363 C-2.60979378 64.7101958 -2.6383331 73.33377905 -2.66143972 81.9574582 C-2.6884847 91.77606499 -2.73239665 101.59457364 -2.77772844 111.41311038 C-2.87059256 131.60868747 -2.94226523 151.80429394 -3 172 C-3.33 172 -3.66 172 -4 172 C-4.09346626 150.60760955 -4.16399049 129.2152528 -4.20724869 107.82269955 C-4.22786863 97.88962412 -4.25597843 87.95667561 -4.30175781 78.02368164 C-4.3416429 69.36547258 -4.36743694 60.70735544 -4.37635398 52.04905707 C-4.38156589 47.46506817 -4.39380398 42.88134224 -4.42292023 38.29743767 C-4.45011575 33.98085803 -4.45843666 29.66464912 -4.45243073 25.34799194 C-4.45352912 23.76576789 -4.4614585 22.18353115 -4.4768219 20.6013813 C-4.61293922 5.85778164 -4.61293922 5.85778164 0 0 Z " fill="#BFBFBF" transform="translate(39,50)"/>
<path d="M0 0 C1.9375 0.3125 1.9375 0.3125 4 1 C5.19706318 4.59118955 4.79735355 5.0331834 3.17333984 8.296875 C2.53674942 9.59467896 2.53674942 9.59467896 1.88729858 10.91870117 C1.41659943 11.85302979 0.94590027 12.7873584 0.4609375 13.75 C-0.01693207 14.71848877 -0.49480164 15.68697754 -0.9871521 16.68481445 C-2.52381979 19.79457575 -4.07393859 22.89739652 -5.625 26 C-7.1518165 29.07536875 -8.67582679 32.15210865 -10.19857788 35.22949219 C-11.1472728 37.14438569 -12.09877228 39.05789336 -13.05361938 40.96972656 C-16.18055749 47.25045443 -19.13561174 53.59537719 -22 60 C-23 57 -23 57 -22.05957031 54.5390625 C-21.57069336 53.57742187 -21.08181641 52.61578125 -20.578125 51.625 C-19.78148437 50.02205078 -19.78148437 50.02205078 -18.96875 48.38671875 C-17.83872796 46.16006169 -16.70852491 43.93349649 -15.578125 41.70703125 C-12.5687648 35.65214065 -10.15176974 29.90167517 -8.60131836 23.30932617 C-7.80357485 20.24564131 -6.5576344 17.74440347 -5 15 C-4.34 15 -3.68 15 -3 15 C-1.08697693 11.73386305 -0.64325339 9.00554752 -0.375 5.25 C-0.30023438 4.26515625 -0.22546875 3.2803125 -0.1484375 2.265625 C-0.09945312 1.51796875 -0.05046875 0.7703125 0 0 Z " fill="#57575B" transform="translate(227,89)"/>
<path d="M0 0 C3.60389664 -0.11601004 7.20731467 -0.18718408 10.8125 -0.25 C11.83666016 -0.28351563 12.86082031 -0.31703125 13.91601562 -0.3515625 C14.89892578 -0.36445312 15.88183594 -0.37734375 16.89453125 -0.390625 C17.80050049 -0.41157227 18.70646973 -0.43251953 19.63989258 -0.45410156 C22 0 22 0 23.8815918 1.83691406 C24.2506665 2.55073242 24.61974121 3.26455078 25 4 C24.67 4.99 24.34 5.98 24 7 C23.34 5.68 22.68 4.36 22 3 C15.4 2.67 8.8 2.34 2 2 C3.1369281 11.61952546 3.1369281 11.61952546 6.5390625 20.4140625 C7.03664063 21.42210938 7.53421875 22.43015625 8.046875 23.46875 C9.10364699 25.58229398 10.16357271 27.69426387 11.2265625 29.8046875 C11.7215625 30.81015625 12.2165625 31.815625 12.7265625 32.8515625 C13.18627441 33.76760254 13.64598633 34.68364258 14.11962891 35.62744141 C15 38 15 38 14 41 C11.96741185 36.9897482 9.95613595 32.96970864 7.96362305 28.93945312 C7.28346196 27.57103957 6.59764351 26.20542238 5.90600586 24.84277344 C4.91045225 22.87890238 3.93595125 20.90573845 2.96484375 18.9296875 C2.49775246 18.02462967 2.49775246 18.02462967 2.02122498 17.10128784 C0.013522 12.94684019 -0.05127798 10.43838251 1 6 C0.62382706 2.73589643 0.62382706 2.73589643 0 0 Z " fill="#505054" transform="translate(115,82)"/>
<path d="M0 0 C0.66 0 1.32 0 2 0 C0.36182463 5.30573215 -1.91439379 10.19750213 -4.34570312 15.16992188 C-5.94320595 18.50700478 -7.29367004 21.78701198 -8.3984375 25.3203125 C-10.11995502 30.67748242 -12.61907767 35.56854902 -15.1875 40.5625 C-15.65091797 41.47580078 -16.11433594 42.38910156 -16.59179688 43.33007812 C-17.72237103 45.55626022 -18.85848699 47.77941297 -20 50 C-21 47 -21 47 -19.3828125 43.5234375 C-18.63565349 42.13767531 -17.88273742 40.75500632 -17.125 39.375 C-14.37543987 34.16922824 -12.3337497 29.95146296 -12.20703125 23.97265625 C-11.81443982 20.23192661 -9.82281941 17.23403444 -8 14 C-7.34 14 -6.68 14 -6 14 C-5.7525 13.175 -5.505 12.35 -5.25 11.5 C-3.81295189 7.47626529 -1.97645485 3.78020976 0 0 Z " fill="#919198" transform="translate(212,125)"/>
<path d="M0 0 C0.33 0 0.66 0 1 0 C1.50484293 6.13824898 0.00658451 9.80048477 -2.9375 15.125 C-6.32016754 21.24910591 -6.32016754 21.24910591 -8 28 C-8.66 28 -9.32 28 -10 28 C-10.66 29.32 -11.32 30.64 -12 32 C-12.63548824 26.15350821 -11.13180867 22.74813979 -8.3671875 17.625 C-7.01269647 15.02437722 -5.92537086 12.42334968 -4.875 9.6875 C-3.53175504 6.23421843 -2.13817206 3.05453152 0 0 Z " fill="#C6C6CE" transform="translate(199,149)"/>
<path d="M0 0 C1.13072182 0.00539291 1.13072182 0.00539291 2.2842865 0.01089478 C3.46956436 0.01067574 3.46956436 0.01067574 4.67878723 0.01045227 C7.30309245 0.0111516 9.92732759 0.01894489 12.55162048 0.02676392 C14.36623089 0.02862803 16.18084179 0.03005196 17.99545288 0.03105164 C22.78111653 0.03487737 27.56675003 0.04470813 32.35240173 0.05575562 C37.23195488 0.06596854 42.11151287 0.070549 46.99107361 0.07559204 C56.57246709 0.08633035 66.15383816 0.10340744 75.73521423 0.12442017 C75.73521423 0.45442017 75.73521423 0.78442017 75.73521423 1.12442017 C74.26729179 1.12988861 74.26729179 1.12988861 72.76971436 1.13546753 C63.54405105 1.17241992 54.31872146 1.23019516 45.09331226 1.30832291 C40.35047846 1.34782051 35.60783096 1.37999775 30.86485291 1.39541626 C26.28698159 1.41056786 21.70962237 1.4449866 17.13197899 1.49272919 C15.38614543 1.50755847 13.64023876 1.51546207 11.89434242 1.51630402 C9.447272 1.51867084 7.00162007 1.5457255 4.55479431 1.57852173 C3.83406235 1.57349136 3.11333038 1.568461 2.37075806 1.5632782 C-2.43043783 1.66274064 -4.8443718 2.78120561 -8.26478577 6.12442017 C-5.91381802 0.01190403 -5.91381802 0.01190403 0 0 Z " fill="#A6A6B3" transform="translate(211.26478576660156,243.87557983398438)"/>
<path d="M0 0 C7.26 0 14.52 0 22 0 C22.33 0.99 22.66 1.98 23 3 C22.34 3.66 21.68 4.32 21 5 C21 4.01 21 3.02 21 2 C14.4 2 7.8 2 1 2 C0.34 3.98 -0.32 5.96 -1 8 C-2.16492415 10.31403485 -3.3747085 12.60595246 -4.625 14.875 C-5.25664062 16.02742188 -5.88828125 17.17984375 -6.5390625 18.3671875 C-7.02117187 19.23601562 -7.50328125 20.10484375 -8 21 C-8.33 20.34 -8.66 19.68 -9 19 C-8.28735352 17.02880859 -8.28735352 17.02880859 -7.12890625 14.6484375 C-6.76095947 13.88192871 -6.3930127 13.11541992 -6.01391602 12.32568359 C-5.53494873 11.35195801 -5.05598145 10.37823242 -4.5625 9.375 C-3.056875 6.28125 -1.55125 3.1875 0 0 Z " fill="#6D6D6D" transform="translate(209,82)"/>
<path d="M0 0 C2 1 2 1 2.8984375 3.5078125 C3.26195313 4.66023438 3.62546875 5.81265625 4 7 C5.16175697 9.9776124 6.39500673 12.92501615 7.625 15.875 C7.94984375 16.65875 8.2746875 17.4425 8.609375 18.25 C9.40440762 20.16743162 10.20194851 22.0838229 11 24 C10.01 24.33 9.02 24.66 8 25 C6.44908304 22.1612239 4.94012569 19.30208954 3.4375 16.4375 C2.99986328 15.63763672 2.56222656 14.83777344 2.11132812 14.01367188 C-0.59498065 8.79283998 -1.53228261 5.73643488 0 0 Z " fill="#C5C5CE" transform="translate(118,88)"/>
<path d="M0 0 C0.33 0 0.66 0 1 0 C1.31563182 5.26053037 0.66590937 8.44573816 -2 13 C-2.99 13 -3.98 13 -5 13 C-5.2475 13.825 -5.495 14.65 -5.75 15.5 C-7.18704811 19.52373471 -9.02354515 23.21979024 -11 27 C-11.66 27 -12.32 27 -13 27 C-11.30916337 20.94965688 -8.3171076 15.63585129 -5.375 10.125 C-4.6015625 8.66320312 -4.6015625 8.66320312 -3.8125 7.171875 C-2.54571714 4.77906294 -1.27478682 2.38855464 0 0 Z " fill="#D8D8DF" transform="translate(217,112)"/>
<path d="M0 0 C4.00460829 5.09677419 4.00460829 5.09677419 5 8 C4.70764733 10.33882138 4.37400786 12.67284 4 15 C4.43941523 17.26566343 4.43941523 17.26566343 5 19 C4 20 4 20 1.95874023 20.11352539 C1.08419189 20.10828857 0.20964355 20.10305176 -0.69140625 20.09765625 C-1.63564453 20.09443359 -2.57988281 20.09121094 -3.55273438 20.08789062 C-5.04256836 20.07532227 -5.04256836 20.07532227 -6.5625 20.0625 C-7.55958984 20.05798828 -8.55667969 20.05347656 -9.58398438 20.04882812 C-12.05604849 20.03700007 -14.52799518 20.02051849 -17 20 C-17 19.01 -17 18.02 -17 17 C-16.34 17.33 -15.68 17.66 -15 18 C-13.6265365 18.15004973 -12.2471474 18.24838006 -10.8671875 18.31640625 C-9.65869141 18.37924805 -9.65869141 18.37924805 -8.42578125 18.44335938 C-7.58402344 18.48267578 -6.74226562 18.52199219 -5.875 18.5625 C-5.02550781 18.60568359 -4.17601562 18.64886719 -3.30078125 18.69335938 C-1.20071777 18.79954236 0.89961948 18.90028497 3 19 C2.50886719 18.09507813 2.50886719 18.09507813 2.0078125 17.171875 C0.82576973 14.62452701 0.84578447 12.77587962 1 10 C1.66 10 2.32 10 3 10 C2.505 9.0925 2.01 8.185 1.5 7.25 C0 4 0 4 0 0 Z " fill="#4F4F52" transform="translate(148,106)"/>
<path d="M0 0 C3.60389664 -0.11601004 7.20731467 -0.18718408 10.8125 -0.25 C11.83666016 -0.28351563 12.86082031 -0.31703125 13.91601562 -0.3515625 C14.89892578 -0.36445312 15.88183594 -0.37734375 16.89453125 -0.390625 C17.80050049 -0.41157227 18.70646973 -0.43251953 19.63989258 -0.45410156 C22 0 22 0 23.8815918 1.83691406 C24.2506665 2.55073242 24.61974121 3.26455078 25 4 C24.67 4.99 24.34 5.98 24 7 C23.34 5.68 22.68 4.36 22 3 C15.4 2.67 8.8 2.34 2 2 C2 2.66 2 3.32 2 4 C1.34 4 0.68 4 0 4 C0 2.68 0 1.36 0 0 Z " fill="#636363" transform="translate(115,82)"/>
<path d="M0 0 C0.33 0 0.66 0 1 0 C1.32712342 6.13053511 1.39366878 10.62669111 -2 16 C-2.66 16 -3.32 16 -4 16 C-4.99 17.98 -5.98 19.96 -7 22 C-7.7109375 20.4375 -7.7109375 20.4375 -8 18 C-6.96484097 15.5480032 -5.89720038 13.32103733 -4.625 11 C-1.70897004 5.73460728 -1.70897004 5.73460728 0 0 Z " fill="#CFCFD6" transform="translate(226,90)"/>
<path d="M0 0 C-2.90600261 1.25664978 -4.79604584 2 -8 2 C-8.20625 2.556875 -8.4125 3.11375 -8.625 3.6875 C-10.55000774 6.92501302 -13.03850902 8.68231141 -16 11 C-16 8 -16 8 -14.390625 5.9921875 C-13.68421875 5.29351562 -12.9778125 4.59484375 -12.25 3.875 C-11.55390625 3.17117187 -10.8578125 2.46734375 -10.140625 1.7421875 C-6.665175 -1.08637217 -4.20575211 -1.35184889 0 0 Z " fill="#A8A8B3" transform="translate(67,50)"/>
<path d="M0 0 C0.33 0 0.66 0 1 0 C1.125 6.75 1.125 6.75 0 9 C-0.99 9.33 -1.98 9.66 -3 10 C-4.21869929 12.50447516 -4.21869929 12.50447516 -5 15 C-5.66 15 -6.32 15 -7 15 C-5.45454854 9.52067211 -2.84456788 4.88570819 0 0 Z " fill="#D2D2DA" transform="translate(186,176)"/>
<path d="M0 0 C0.33 0 0.66 0 1 0 C1.29915966 8.97478992 1.29915966 8.97478992 -1 12 C-1.99 12.33 -2.98 12.66 -4 13 C-3.50269348 8.02693484 -2.44697666 4.36200187 0 0 Z " fill="#909098" transform="translate(222,104)"/>
<path d="M0 0 C0.33 0.66 0.66 1.32 1 2 C1.66 2 2.32 2 3 2 C3.4125 2.886875 3.825 3.77375 4.25 4.6875 C5.90127288 7.81312366 7.71331259 10.31905614 10 13 C6.15204421 11.43231431 3.6637935 9.16775443 1 6 C0.1875 2.6875 0.1875 2.6875 0 0 Z " fill="#787878" transform="translate(48,214)"/>
<path d="M0 0 C0.66 0 1.32 0 2 0 C0.68938409 4.23429756 -0.94356259 8.07407404 -3 12 C-4.0625 10.125 -4.0625 10.125 -5 8 C-4.67 7.34 -4.34 6.68 -4 6 C-3.34 6 -2.68 6 -2 6 C-1.34 4.02 -0.68 2.04 0 0 Z " fill="#BABAC3" transform="translate(183,185)"/>
<path d="M0 0 C0.33 0 0.66 0 1 0 C1.31563182 5.26053037 0.66590937 8.44573816 -2 13 C-2.33 13 -2.66 13 -3 13 C-2.88490339 11.58249437 -2.75746342 10.16598831 -2.625 8.75 C-2.55539063 7.96109375 -2.48578125 7.1721875 -2.4140625 6.359375 C-1.98492887 3.914123 -1.21399362 2.15163097 0 0 Z " fill="#BCBCC6" transform="translate(217,112)"/>
<path d="M0 0 C0.66 0.33 1.32 0.66 2 1 C1.95875 2.2375 1.9175 3.475 1.875 4.75 C1.85725107 8.10454838 2.3608523 10.04953415 4 13 C3.67 13.99 3.34 14.98 3 16 C-0.59058175 10.20575649 -1.43484866 6.69596042 0 0 Z " fill="#49494C" transform="translate(116,86)"/>
<path d="M0 0 C2.29633824 3.44450737 2.54016485 5.93812283 3 10 C2.01 10.495 2.01 10.495 1 11 C-0.20272819 8.59454362 -0.10071472 7.05003047 -0.0625 4.375 C-0.05347656 3.55773437 -0.04445312 2.74046875 -0.03515625 1.8984375 C-0.02355469 1.27195313 -0.01195312 0.64546875 0 0 Z " fill="#C8C8D0" transform="translate(165,185)"/>
<path d="M0 0 C0.66 0.33 1.32 0.66 2 1 C2 4.3 2 7.6 2 11 C-1 7 -1 7 -0.6875 3.25 C-0.3471875 1.64125 -0.3471875 1.64125 0 0 Z " fill="#B5B5BB" transform="translate(118,88)"/>
<path d="M0 0 C0.66 0 1.32 0 2 0 C1.67 1.98 1.34 3.96 1 6 C-0.32 6 -1.64 6 -3 6 C-2.67 4.68 -2.34 3.36 -2 2 C-1.34 2 -0.68 2 0 2 C0 1.34 0 0.68 0 0 Z " fill="#C9C9D1" transform="translate(177,195)"/>
<path d="M0 0 C0.66 0.33 1.32 0.66 2 1 C1.67 2.65 1.34 4.3 1 6 C0.34 6 -0.32 6 -1 6 C-1.66 7.32 -2.32 8.64 -3 10 C-3.36629408 5.72656908 -2.40814077 3.51187196 0 0 Z " fill="#A5A5AE" transform="translate(190,171)"/>
<path d="M0 0 C1.33332095 2.6666419 0.67102033 4.16680303 0 7 C-0.66 7 -1.32 7 -2 7 C-2.66 8.32 -3.32 9.64 -4 11 C-3.48964169 6.6109185 -2.47785723 3.66291938 0 0 Z " fill="#D2D2DA" transform="translate(214,118)"/>
<path d="M0 0 C2.33333823 2.12121657 3.9148886 4.01594365 5 7 C4.625 9.25 4.625 9.25 4 11 C0 4.5 0 4.5 0 0 Z " fill="#727272" transform="translate(306,50)"/>
<path d="M0 0 C0.75 1.5625 0.75 1.5625 1 4 C-0.13084437 6.50286409 -1.52139516 8.67007722 -3 11 C-3.75 9.4375 -3.75 9.4375 -4 7 C-2.86915563 4.49713591 -1.47860484 2.32992278 0 0 Z " fill="#696969" transform="translate(39,50)"/>
<path d="M0 0 C-1.24176695 0.70226141 -2.49385599 1.38629109 -3.75 2.0625 C-4.79414062 2.63677734 -4.79414062 2.63677734 -5.859375 3.22265625 C-8.36140628 4.1312406 -9.5332355 3.88336837 -12 3 C-10.75823305 2.29773859 -9.50614401 1.61370891 -8.25 0.9375 C-7.20585938 0.36322266 -7.20585938 0.36322266 -6.140625 -0.22265625 C-3.63859372 -1.1312406 -2.4667645 -0.88336837 0 0 Z " fill="#636363" transform="translate(60,38)"/>
<path d="M0 0 C0.33 0 0.66 0 1 0 C1.125 3.375 1.125 3.375 1 7 C0.34 7.66 -0.32 8.32 -1 9 C-1.625 6.1875 -1.625 6.1875 -2 3 C-1.34 2.01 -0.68 1.02 0 0 Z " fill="#C2C2CA" transform="translate(186,176)"/>
<path d="M0 0 C0.99 0.33 1.98 0.66 3 1 C0.03 3.475 0.03 3.475 -3 6 C-3 3 -3 3 -1.5 1.3125 C-0.7575 0.6628125 -0.7575 0.6628125 0 0 Z " fill="#8F8F9E" transform="translate(54,55)"/>
</svg>
